# xmcd CD database file
#
# Track frame offsets:
#	150
#	23172
#	44080
#	73867
#	92955
#	113770
#	152192
#	169777
#	193290
#	211777
#	228232
#
# Disc length: 3276 seconds
#
# Revision: 0
# Processed by: cddbd v1.5PL3 Copyright (c) Steve Scherf et al.
# Submitted via: CDex 1.51
#
DISCID=9a0cca0b
DTITLE=森重樹一 - LOVE SOMEBODY
DYEAR=1996
DGENRE=Rock
TTITLE0=infinity
TTITLE1=Time will tell
TTITLE2=BLUE SKY
TTITLE3=ピーナッツバターのサンドウィッチ
TTITLE4=夜間飛行
TTITLE5=Rose Mary
TTITLE6=十中八九
TTITLE7=LOVE SOMEBODY
TTITLE8=嵐の中に咲く火のように
TTITLE9=聖者と暴君
TTITLE10=悪い方じゃないさ
EXTD=YEAR: 1996
EXTT0=
EXTT1=
EXTT2=
EXTT3=
EXTT4=
EXTT5=
EXTT6=
EXTT7=
EXTT8=
EXTT9=
EXTT10=
PLAYORDER=
